# xmcd
#
# Track frame offsets:
#	150
#	18779
#	34924
#	53160
#	69205
#	85022
#	100267
#	114251
#	129168
#	146481
#	159531
#
# Disc length: 2181 seconds
# Revision: 0
# Processed by: cddbd v1.5.2PL0 Copyright (c) Steve Scherf et al.
# Submitted via: dBpowerAMP V12.0
#
DISCID=7e08830b
DTITLE=Μαρία Δημητριάδη - Δον Κιχωτες
DYEAR=2001
DGENRE=Έντεχνο
TTITLE0=Δώρο
TTITLE1=Άνθρωπος πέρασε από εδώ
TTITLE2=Εφτά ζωές
TTITLE3=Ο Τσέ στη Νέα Υόρκη (Δον Κιχώτες)
TTITLE4=Σώμα βουβό
TTITLE5=Το κυπαρίσσι
TTITLE6=Η προσευχή της βάρκας
TTITLE7=Ο ποταμός Ηριδανός
TTITLE8=Όμορφη νύχτα
TTITLE9=Αν δεις πράσινο σύννεφο
TTITLE10=Bonus track
EXTD=
EXTT0=
EXTT1=
EXTT2=
EXTT3=
EXTT4=
EXTT5=
EXTT6=
EXTT7=
EXTT8=
EXTT9=
EXTT10=
PLAYORDER=
